<?xml version="1.0" encoding="UTF-8" standalone="no"?>
<svg
   xmlns:dc="http://purl.org/dc/elements/1.1/"
   xmlns:cc="http://creativecommons.org/ns#"
   xmlns:rdf="http://www.w3.org/1999/02/22-rdf-syntax-ns#"
   xmlns:svg="http://www.w3.org/2000/svg"
   xmlns="http://www.w3.org/2000/svg"
   xmlns:sodipodi="http://sodipodi.sourceforge.net/DTD/sodipodi-0.dtd"
   xmlns:inkscape="http://www.inkscape.org/namespaces/inkscape"
   enable-background="new 0 0 595.275 311.111"
   xml:space="preserve"
   height="512"
   width="512"
   version="1.1"
   y="0px"
   x="0px"
   id="svg2"
   viewBox="0 0 512 512"
   inkscape:version="0.48.5 r10040"
   sodipodi:docname="ic_launcher.svg"><metadata
     id="metadata10"><rdf:RDF><cc:Work
         rdf:about=""><dc:format>image/svg+xml</dc:format><dc:type
           rdf:resource="http://purl.org/dc/dcmitype/StillImage" /></cc:Work></rdf:RDF></metadata><defs
     id="defs8" /><sodipodi:namedview
     pagecolor="#ffffff"
     bordercolor="#666666"
     borderopacity="1"
     objecttolerance="10"
     gridtolerance="10"
     guidetolerance="10"
     inkscape:pageopacity="0"
     inkscape:pageshadow="2"
     inkscape:window-width="1366"
     inkscape:window-height="692"
     id="namedview6"
     showgrid="false"
     inkscape:zoom="0.65230601"
     inkscape:cx="253.31531"
     inkscape:cy="406.53572"
     inkscape:window-x="0"
     inkscape:window-y="25"
     inkscape:window-maximized="1"
     inkscape:current-layer="svg2" /><rect
     rx="70"
     ry="70"
     height="448"
     width="448"
     y="32"
     x="32"
     id="rect4"
     style="fill:#1d2d44" /><path
     inkscape:connector-curvature="0"
     style="fill:#ffffff"
     id="path4"
     d="m 417.65961,90.95705 c 3.91262,3.2617 5.86891,7.175762 5.21682,11.74219 l -47.60347,286.37888 c -0.65202,3.91407 -2.60842,6.52344 -6.52104,8.48049 -1.3042,1.30469 -3.26049,1.30469 -5.21682,1.30469 -1.95629,0 -3.26048,0 -4.56472,-0.65229 l -84.7733,-34.5742 -44.99507,54.79688 C 227.24572,421.69531 223.98519,423 220.07257,423 c -1.30419,0 -2.60839,0 -3.91262,-0.65232 -2.60839,-0.65237 -4.56468,-2.60938 -5.86891,-4.56643 -1.30419,-1.95701 -1.95629,-3.91406 -1.95629,-6.52344 l 0,-65.23437 L 369.40405,148.3633 169.86072,321.23437 96.173144,290.57424 C 91.608426,289.26955 89.652097,286.00781 89,280.78906 c 0,-5.21875 1.956329,-9.13281 5.868911,-11.08982 L 405.26965,90.95705 C 406.57389,89.652363 408.53018,89 411.1386,89 c 2.60839,0 4.56472,0.652363 6.52101,1.95705 z" /></svg>