<?xml version="1.0" encoding="UTF-8" standalone="no"?>
<svg
   xmlns:dc="http://purl.org/dc/elements/1.1/"
   xmlns:cc="http://creativecommons.org/ns#"
   xmlns:rdf="http://www.w3.org/1999/02/22-rdf-syntax-ns#"
   xmlns:svg="http://www.w3.org/2000/svg"
   xmlns="http://www.w3.org/2000/svg"
   xmlns:sodipodi="http://sodipodi.sourceforge.net/DTD/sodipodi-0.dtd"
   xmlns:inkscape="http://www.inkscape.org/namespaces/inkscape"
   enable-background="new 0 0 595.275 311.111"
   xml:space="preserve"
   height="512"
   width="512"
   version="1.1"
   y="0px"
   x="0px"
   id="svg2"
   viewBox="0 0 512 512"
   inkscape:version="0.91 r13725"
   sodipodi:docname="ic_launcher.svg"><metadata
     id="metadata10"><rdf:RDF><cc:Work
         rdf:about=""><dc:format>image/svg+xml</dc:format><dc:type
           rdf:resource="http://purl.org/dc/dcmitype/StillImage" /></cc:Work></rdf:RDF></metadata><defs
     id="defs8" /><sodipodi:namedview
     pagecolor="#ffffff"
     bordercolor="#666666"
     borderopacity="1"
     objecttolerance="10"
     gridtolerance="10"
     guidetolerance="10"
     inkscape:pageopacity="0"
     inkscape:pageshadow="2"
     inkscape:window-width="1920"
     inkscape:window-height="1148"
     id="namedview6"
     showgrid="false"
     inkscape:zoom="0.73698733"
     inkscape:cx="8.4791339"
     inkscape:cy="91.823077"
     inkscape:window-x="-8"
     inkscape:window-y="-8"
     inkscape:window-maximized="1"
     inkscape:current-layer="svg2" /><rect
     rx="70"
     ry="70"
     height="448"
     width="448"
     y="32"
     x="32"
     id="rect4"
     style="fill:#0082C9" /><path
     style="fill:#ffffff;fill-opacity:1;fill-rule:evenodd;stroke:#000000;stroke-width:0.25007507;stroke-linecap:butt;stroke-linejoin:miter;stroke-miterlimit:4;stroke-dasharray:none;stroke-opacity:0"
     d="m 122.44396,89.125042 c -18.45887,0 -33.318923,14.115008 -33.318923,31.647818 l 0,143.74017 c 0,17.53283 14.860053,31.64784 33.318923,31.64784 l 38.24891,0 152.52844,126.43415 -49.39316,-126.43415 125.72788,0 c 18.45889,0 33.31893,-14.11501 33.31893,-31.64784 l 0,-143.74017 c 0,-17.53281 -14.86004,-31.647818 -33.31893,-31.647818 z m 9.05472,27.207518 249.00265,0 c 9.08866,0 16.40549,5.85418 16.40549,13.12558 l 0,8.53918 c 0,7.27142 -7.31683,13.12389 -16.40549,13.12389 l -249.00265,0 c -9.08867,0 -16.40551,-5.85247 -16.40551,-13.12389 l 0,-8.53918 c 0,-7.2714 7.31684,-13.12558 16.40551,-13.12558 z m 0,60.50813 249.00265,0 c 9.08866,0 16.40549,5.85418 16.40549,13.12559 l 0,8.53748 c 0,7.27141 -7.31683,13.12559 -16.40549,13.12559 l -249.00265,0 c -9.08867,0 -16.40551,-5.85418 -16.40551,-13.12559 l 0,-8.53748 c 0,-7.27141 7.31684,-13.12559 16.40551,-13.12559 z m 0,60.01043 89.95439,0 c 9.08866,0 16.40548,7.9877 16.40548,15.25911 l 0,6.40397 c 0,7.27139 -7.31682,13.12558 -16.40548,13.12558 l -89.95439,0 c -9.08867,0 -16.40551,-5.85419 -16.40551,-13.12558 l 0,-6.40397 c 0,-7.27141 7.31684,-15.25911 16.40551,-15.25911 z"
     id="rect3350"
     inkscape:connector-curvature="0"
     sodipodi:nodetypes="sssscccssssssssssssssssssssssssssssssss" /></svg>
