<?xml version="1.0" encoding="UTF-8" standalone="no"?>
<svg
   xmlns:dc="http://purl.org/dc/elements/1.1/"
   xmlns:cc="http://creativecommons.org/ns#"
   xmlns:rdf="http://www.w3.org/1999/02/22-rdf-syntax-ns#"
   xmlns:svg="http://www.w3.org/2000/svg"
   xmlns="http://www.w3.org/2000/svg"
   xmlns:sodipodi="http://sodipodi.sourceforge.net/DTD/sodipodi-0.dtd"
   xmlns:inkscape="http://www.inkscape.org/namespaces/inkscape"
   enable-background="new 0 0 595.275 311.111"
   xml:space="preserve"
   height="546.13336"
   width="546.13336"
   version="1.1"
   y="0px"
   x="0px"
   id="svg2"
   viewBox="0 0 512 512"
   inkscape:version="0.92.1 r15371"
   sodipodi:docname="notification_icon.svg"
   inkscape:export-filename="C:\DEV\src\Android\Nextcloud\ownCloud-SMS-App\src\main\res\drawable-xxxhdpi\notification_icon.png"
   inkscape:export-xdpi="16.879999"
   inkscape:export-ydpi="16.879999"><metadata
     id="metadata10"><rdf:RDF><cc:Work
         rdf:about=""><dc:format>image/svg+xml</dc:format><dc:type
           rdf:resource="http://purl.org/dc/dcmitype/StillImage" /></cc:Work></rdf:RDF></metadata><defs
     id="defs8" /><sodipodi:namedview
     pagecolor="#ffffff"
     bordercolor="#666666"
     borderopacity="1"
     objecttolerance="10"
     gridtolerance="10"
     guidetolerance="10"
     inkscape:pageopacity="0"
     inkscape:pageshadow="2"
     inkscape:window-width="1920"
     inkscape:window-height="1005"
     id="namedview6"
     showgrid="false"
     inkscape:zoom="1.4739747"
     inkscape:cx="140.31712"
     inkscape:cy="253.09893"
     inkscape:window-x="-9"
     inkscape:window-y="-9"
     inkscape:window-maximized="1"
     inkscape:current-layer="svg2" /><path
     style="fill:#ffffff;fill-opacity:1;fill-rule:evenodd;stroke:#000000;stroke-width:0.30745259;stroke-linecap:butt;stroke-linejoin:miter;stroke-miterlimit:4;stroke-dasharray:none;stroke-opacity:0"
     d="m 76.647972,90.431718 c -24.788364,0 -44.743887,15.887432 -44.743887,35.621852 v 161.78969 c 0,19.73444 19.955523,35.62188 44.743887,35.62188 H 128.01232 L 332.84234,465.77569 266.5124,323.46514 h 168.83961 c 24.7884,0 44.7439,-15.88744 44.7439,-35.62188 V 126.05357 c 0,-19.73442 -19.9555,-35.621852 -44.7439,-35.621852 z M 88.80753,121.0557 h 334.38495 c 12.20514,0 22.03089,6.58929 22.03089,14.77376 v 9.61145 c 0,8.1845 -9.82575,14.77187 -22.03089,14.77187 H 88.80753 c -12.205149,0 -22.030913,-6.58737 -22.030913,-14.77187 v -9.61145 c 0,-8.18447 9.825764,-14.77376 22.030913,-14.77376 z m 0,68.10616 h 334.38495 c 12.20514,0 22.03089,6.5893 22.03089,14.77378 v 9.60954 c 0,8.18448 -9.82575,14.77377 -22.03089,14.77377 H 88.80753 c -12.205149,0 -22.030913,-6.58929 -22.030913,-14.77377 v -9.60954 c 0,-8.18448 9.825764,-14.77378 22.030913,-14.77378 z m 0,67.54597 h 120.79949 c 12.20514,0 22.03088,8.99072 22.03088,17.17521 v 7.20812 c 0,8.18446 -9.82574,14.77376 -22.03088,14.77376 H 88.80753 c -12.205149,0 -22.030913,-6.5893 -22.030913,-14.77376 v -7.20812 c 0,-8.18449 9.825764,-17.17521 22.030913,-17.17521 z"
     id="rect3350"
     inkscape:connector-curvature="0"
     sodipodi:nodetypes="sssscccssssssssssssssssssssssssssssssss" /></svg>